<?xml version="1.0" encoding="UTF-8"?><svg id="a" xmlns="http://www.w3.org/2000/svg" viewBox="0 0 217 217"><rect id="b" width="217" height="217" rx="20" ry="20" style="fill:#fffef9;"/><g id="c"><path id="d" d="M178.07,184.44c3.28-4.22,3.87-11.07,11.65-7.89-1.34,3.02-2.39,6.35-4.17,9.23-4.1,6.64-3.45,13.91-3.44,21.13,0,5.61-.07,5.66-6.93,4.73,1.84-12.78,.18-25.03-8.85-35.38,8.95-3.7,9.04,3.62,11.75,8.18Z" style="fill:#662371;"/><path id="e" d="M140.37,176.17c4.66,0,9.45-.35,14.15,.17,1.89,.21,4.33,1.93,5.21,3.63,2.9,5.61,3.27,11.62-.09,17.2-1.1,1.83-1.3,3.01-.39,4.83,1.48,2.96,2.68,6.05,4.01,9.1-6.04,2.2-7.02,1.88-9.74-2.91-.83-1.46-1.46-3.06-2.47-4.38-.68-.89-1.85-1.41-3.61-2.67v11.05c-2.34,.27-4.36,.5-7.07,.81v-36.85Zm7.15,20.42c2.68-1.58,5.72-2.35,6.16-3.87,.74-2.54,.3-5.72-.64-8.28-.42-1.15-3.25-1.42-5.52-2.3v14.44Z" style="fill:#662371;"/><path id="f" d="M114.12,175.5h20.33c.17,2.33,.32,4.48,.51,7.2-3.16,.26-6.05,.68-8.93,.69-3.39,.02-4.72,1.33-3.57,5.1h8.3c1.94,5.61,1.56,6.2-3.74,6.69-4.25,.39-6.95,5.46-4.72,9.2,.42,.7,1.85,1.08,2.84,1.13,2.95,.15,5.9,.05,9.28,.05v6.41h-20.3v-36.47Z" style="fill:#662371;"/><path id="g" d="M90.24,197.3v15.36h-6.93v-37.11h6.25v10.74l1.05,.46c1.89-2.61,4.07-5.06,5.6-7.86,2.23-4.09,5.33-4.92,10.14-3.35-2.49,3.7-4.58,7.43-7.28,10.67-2.72,3.26-2.54,5.93-.19,9.25,2.83,3.99,5.21,8.3,7.74,12.49,.69,1.15,1.24,2.39,1.88,3.62-4.37,1.46-7.24,.62-9.38-3.34-2.11-3.89-4.89-7.43-7.37-11.12-.5,.06-1,.13-1.51,.19Z" style="fill:#662371;"/><path id="h" d="M70.82,180.71c-.21-.81-.15-1.87-.66-2.38-1.11-1.12-2.39-2.44-3.83-2.79-2.09-.52-4.21-.09-4.92,2.62-.95,3.64-2.06,7.23-3.02,10.87-1.99,7.5-3.92,15.02-6.09,23.36,3.09-.3,7.22,.14,7.62-.87,2.07-5.22,5.94-3.37,9.67-3.4,.64,6.74,5.21,3.91,9.34,3.86-2.8-10.8-5.46-21.03-8.12-31.26Zm-2.28,13.16c-1.24,1.23-5.25,1.09-6.46-.8-1.48-2.32,1.64-4.71,2.77-5.83,2.26,0,5.38,4.96,3.69,6.64Z" style="fill:#662371;"/><path id="i" d="M129.74,133.8c-.21-.81-.15-1.87-.66-2.38-1.11-1.12-2.39-2.44-3.83-2.79-2.09-.52-4.21-.09-4.92,2.62-.95,3.64-2.06,7.23-3.02,10.87-1.99,7.5-3.92,15.02-6.09,23.36,3.09-.3,7.22,.14,7.62-.87,2.07-5.22,5.94-3.37,9.67-3.4,.64,6.74,5.21,3.91,9.34,3.86-2.8-10.8-5.46-21.03-8.12-31.26Zm-2.28,13.16c-1.24,1.23-5.25,1.09-6.46-.8-1.48-2.32,1.64-4.71,2.77-5.83,2.26,0,5.38,4.96,3.69,6.64Z" style="fill:#662371;"/><path id="j" d="M46.18,193.28c3.54,3.85,3.31,8.23,2.6,12.53-.64,3.94-2.81,6.65-7.34,6.62-4.32-.03-8.63,0-13.53,0,0-9.94,0-19.12,0-28.29,0-8.54-.01-8.56,8.74-8.78,4.09-.1,8.39-.55,10.69,3.98,2.4,4.73,2.51,9.36-1.16,13.93Zm-10.64,2.95c.21,3.84,.37,6.62,.59,10.65,2.76-1.44,5.22-1.98,6.2-3.48,.78-1.19,.37-4.1-.65-5.23-1.08-1.2-3.51-1.19-6.14-1.93Zm-.64-6.74l1.34,.57c1.96-.98,5.91,1.34,5.53-3.46-.21-2.64-2.16-4.79-4.37-3.51-1.56,.9-1.72,4.18-2.5,6.41Z" style="fill:#662371;"/></g><g id="k"><path id="l" d="M161.03,158.44c1.25-1.28,2.41-2.46,3.69-3.77,1.92,1.32,3.28,2.85,4.9,3.2,1.76,.38,4.59,.33,5.48-.73,1.77-2.13,.26-4.05-2.12-5.23-1.88-.93-3.71-2.01-5.46-3.18-5.37-3.6-6.57-9.42-3.05-14.47,3.8-5.45,10.06-6.48,15.47-2.51,1,.74,1.9,1.63,2.98,2.56-1.95,2.61-3.03,5.97-7.46,3.35-1.08-.64-3.39,.74-5.13,1.19,.89,1.5,1.52,3.27,2.73,4.44,1.16,1.12,2.98,1.52,4.41,2.4,5.11,3.18,6.49,6.26,5.49,11.98-.71,4.06-4.49,7.95-8.62,8.87-3.93,.88-9.03-1.57-11.8-5.67-.39-.58-.74-1.19-1.5-2.43Z" style="fill:#662371;"/><path id="m" d="M150.88,165.7h-6.51v-29.11c-2.32-.19-4.08-.33-6.1-.49v-6.29h18.98v5.81c-1.92,.37-3.82,.74-6.37,1.24v28.83Z" style="fill:#662371;"/><path id="n" d="M93.25,142.64h8.88c.08,1.87,.16,3.48,.25,5.58-2.2,.3-4.22,.74-6.26,.82-5.4,.22-2.93,4.39-3.5,6.91-.64,2.84,1.16,3.57,3.72,3.45,2.8-.13,5.61-.03,8.35-.03,1.87,5.77,1.32,6.58-4.36,6.61-5.31,.02-10.63,0-15.82,0v-36.56h19.77c2.8,6.01,2.13,7.24-4.22,7.61-1.13,.07-2.25,.23-3.37,.18-3.72-.16-4.75,1.55-3.45,5.44Z" style="fill:#662371;"/><path id="o" d="M79.22,165.11c-6.92,1.78-7.01,1.66-10.45-4.07-1.12-1.88-2.77-3.45-4.18-5.15-.47,2.13-1.44,4.29-1.3,6.38,.37,5.61-3.53,4.03-7.17,4.36v-36.67c4.65,0,9.45-.34,14.15,.17,1.9,.21,4.39,1.86,5.26,3.55,2.96,5.74,3.23,11.71-.04,17.64-.64,1.16-.73,3-.3,4.26,1.1,3.23,2.63,6.32,4.03,9.55Zm-15.67-28.18v12.1c5.42,.08,7.08-1.6,6.86-6.66-.2-4.62-1.92-6.05-6.86-5.45Z" style="fill:#662371;"/><path id="p" d="M51.8,130.06c-.1,2.19-.17,3.83-.25,5.55-2.08,.31-3.86,.58-6.68,1.01,0,8.51,0,17.01,0,25.51,0,2.15,.23,4.27-3.08,4.18-3.35-.09-2.88-2.32-2.88-4.39,0-8.37,0-16.73,0-25.06q-6.99-1.53-5.62-6.81h18.51Z" style="fill:#662371;"/></g><g id="q"><path id="r" d="M160.65,119.5v-29.12c-2.41-.19-4.17-.32-6.14-.47v-6.29h18.51q1.64,5.66-5.87,7.13v28.75h-6.5Z" style="fill:#662371;"/><path id="s" d="M103.26,83.08h20.17c.25,1.33,.45,2.53,.7,3.71,.54,2.58-.2,4-3.16,3.91-1.96-.06-3.94,.36-5.9,.3-3.65-.09-4.36,1.7-3.29,5.18h8.86v5.83c-1.18,.23-2.39,.53-3.62,.68-5.23,.61-7.18,3.36-5.66,8.53,.24,.82,1.66,1.7,2.64,1.83,2.08,.28,4.23,.21,6.33,.04,2.54-.21,3.93,.3,3.95,3.28,.02,2.92-1.33,3.48-3.87,3.43-5.75-.12-11.5-.04-17.15-.04v-36.68Z" style="fill:#662371;"/><path id="t" d="M129.57,119.78v-36.67h20.08c.22,.82,.46,1.46,.56,2.13q.73,5.23-4.73,5.56c-1.27,.08-2.53,.13-3.8,.23q-4.29,.34-3.58,5.25h8.94c.1,2.01,.17,3.62,.28,5.73-2.17,.3-4.19,.78-6.21,.82-2.49,.05-3.34,1.01-3.5,3.51-.43,6.89-.56,6.88,6.58,6.84,1.82-.01,3.64,0,5.4,0,1.97,5.67,1.37,6.58-4.25,6.61-5.32,.03-10.64,0-15.75,0Z" style="fill:#662371;"/><path id="u" d="M71.27,83.01h6.97v18.26l1.09,.16c1.5-3.04,3-6.09,4.69-9.5l5.11,8.03,.93-.07v-16.99h7.6v36.38c-6.93,1.22-7.01,1.19-9.8-4.46-1.1-2.24-2.13-4.52-3.66-7.79-1.73,3.9-3.33,6.89-4.37,10.06-1.22,3.72-4.2,2.91-6.59,2.54-.85-.13-1.87-2.64-1.89-4.08-.16-10.73-.09-21.46-.09-32.56Z" style="fill:#662371;"/><path id="v" d="M61.93,92.6c-1.98-.73-3.65-1.76-5.35-1.84-1.28-.06-3.27,.79-3.74,1.79-.41,.87,.52,2.86,1.45,3.75,1.28,1.21,3.09,1.88,4.71,2.73,5.86,3.05,7.88,6.51,6.95,12-.78,4.59-4.67,8.37-9.33,9.05-5.28,.78-9.83-1.88-12.57-7.61,1.25-1.1,2.59-2.28,3.89-3.42,1.99,1.27,3.71,2.98,5.71,3.45,1.49,.35,3.37-.9,5.07-1.43-.66-1.47-.95-3.41-2.08-4.31-2.16-1.72-4.94-2.66-7.22-4.27-4.59-3.25-5.42-9.19-2.21-14.14,3.06-4.72,8.93-6.61,13.61-3.99,5.5,3.08,5.47,5.14,1.1,8.25Z" style="fill:#662371;"/></g><path id="w" d="M108.19,69.63c-4.94,0-9.88-.15-14.81,.06-2.92,.13-4.25-.81-4.87-3.72-1.36-6.42-3.12-12.75-4.64-19.13-.57-2.41-1.42-4.19-4.2-5.03-2.89-.88-5.17-2.78-5.03-6.4,.13-3.36,2.13-4.81,4.99-5.96,1.09-.44,2.24-1.93,2.47-3.12,2.55-13.18,13.16-22.29,26.26-22.34,13.26-.05,23.79,8.99,26.51,22.52,.23,1.14,1.51,2.45,2.64,2.95,2.79,1.25,4.74,2.72,4.79,6.13,.04,3.45-1.95,5.26-4.78,6.06-2.92,.83-3.87,2.72-4.48,5.32-1.53,6.53-3.3,13-4.76,19.54-.53,2.34-1.57,3.23-3.99,3.16-5.36-.14-10.72-.04-16.09-.04Zm11.18-34.7c4.08,6.34,11.19,8.55,17.58,5.25,1.7-.88,3.73-3.24,3.64-4.82-.08-1.55-2.44-3.76-4.2-4.25-2.46-.68-2.96-1.76-3.21-3.97-1.27-11.23-10.38-20.01-22.11-21.52-10.55-1.36-21.58,5.13-25.65,15.34-1.17,2.94-1.69,6.14-2.55,9.39-.19,.07-.57,.27-.97,.33-2.77,.44-5.5,1.16-5.72,4.51-.23,3.48,2.45,5.07,5.26,5.58,2.96,.53,6.3,.87,9.07,.02,2.75-.85,4.99-3.29,7.43-5.02,1.22,4.71,5.61,5.71,10.05,5.82,4.88,.12,9.59-.86,11.37-6.64Zm-10.1,9.08c0,6.76,.04,13.71-.02,20.67-.02,2.18,.12,3.92,3.04,3.72,2.29-.16,4.69,.62,5.04-3.16,.72-7.75,1.94-15.46,2.88-23.2,.1-.83-.3-1.72-.42-2.39-3.5,1.45-6.69,2.78-10.52,4.37Zm-1.74,23.96v-24.09c-3.49-1.4-6.8-2.73-10.45-4.2-.08,.94-.35,1.99-.24,3,.76,6.64,1.56,13.28,2.45,19.91,.85,6.32,.91,6.31,8.24,5.38Zm11.07-.32c5.57,1.43,7.28,1.12,8.03-1.68,1.96-7.37,3.75-14.79,5.62-22.21-3.57-.76-6.78-1.45-10.35-2.22-1.11,8.81-2.21,17.48-3.3,26.11Zm-33.87-23.86c1.63,6.5,3.25,12.99,4.87,19.49,1.43,5.74,2.38,6.23,8.76,4.25-1.12-8.68-2.24-17.42-3.35-26.01-3.83,.85-6.96,1.54-10.29,2.28Z" style="fill:#662371;"/></svg>